<svg xmlns="http://www.w3.org/2000/svg" width="68" height="47" fill="none" viewBox="0 0 68 47"><rect width="68" height="47" fill="#F78C3E" rx="10"/><path stroke="#F8F8F8" stroke-linecap="round" stroke-linejoin="round" stroke-width="2" d="M20.667 15.0002C20.667 14.2929 20.9479 13.6146 21.448 13.1145C21.9481 12.6144 22.6264 12.3335 23.3337 12.3335H44.667C45.3742 12.3335 46.0525 12.6144 46.5526 13.1145C47.0527 13.6146 47.3337 14.2929 47.3337 15.0002V31.0002C47.3337 31.7074 47.0527 32.3857 46.5526 32.8858C46.0525 33.3859 45.3742 33.6668 44.667 33.6668H23.3337C22.6264 33.6668 21.9481 33.3859 21.448 32.8858C20.9479 32.3857 20.667 31.7074 20.667 31.0002V15.0002Z"/><path stroke="#F8F8F8" stroke-linejoin="round" stroke-width="2" d="M20.667 17.667L30.6683 25.6683C31.614 26.425 32.7891 26.8373 34.0003 26.8373C35.2115 26.8373 36.3866 26.425 37.3323 25.6683L47.3337 17.667"/></svg>