<svg width="68" height="47" viewBox="0 0 68 47" fill="none" xmlns="http://www.w3.org/2000/svg">
<rect width="68" height="47" rx="10" fill="#4CC82D"/>
<path d="M42.9998 36H42.8298C23.1798 34.87 20.3898 18.29 19.9998 13.23C19.9683 12.8366 20.0148 12.4408 20.1366 12.0654C20.2584 11.69 20.4531 11.3423 20.7095 11.0423C20.9659 10.7422 21.2789 10.4957 21.6308 10.3168C21.9826 10.138 22.3663 10.0303 22.7598 10H28.2698C28.6703 9.99961 29.0618 10.1195 29.3934 10.3442C29.725 10.5688 29.9816 10.8879 30.1298 11.26L31.6498 15C31.7961 15.3635 31.8324 15.7621 31.7542 16.1461C31.676 16.5301 31.4867 16.8827 31.2098 17.16L29.0798 19.31C29.4125 21.2007 30.3179 22.9437 31.6737 24.303C33.0294 25.6622 34.7699 26.5723 36.6598 26.91L38.8298 24.76C39.1113 24.4862 39.4671 24.3013 39.853 24.2283C40.2389 24.1554 40.6378 24.1977 40.9998 24.35L44.7698 25.86C45.1363 26.0129 45.449 26.2714 45.668 26.6027C45.8871 26.9339 46.0026 27.3229 45.9998 27.72V33C45.9998 33.7956 45.6837 34.5587 45.1211 35.1213C44.5585 35.6839 43.7954 36 42.9998 36ZM22.9998 12C22.7345 12 22.4802 12.1054 22.2927 12.2929C22.1051 12.4804 21.9998 12.7348 21.9998 13V13.08C22.4598 19 25.4098 33 42.9398 34C43.0711 34.0081 43.2028 33.9902 43.3273 33.9473C43.4517 33.9045 43.5665 33.8374 43.6649 33.7501C43.7634 33.6628 43.8437 33.5568 43.9011 33.4384C43.9586 33.32 43.9921 33.1914 43.9998 33.06V27.72L40.2298 26.21L37.3598 29.06L36.8798 29C28.1798 27.91 26.9998 19.21 26.9998 19.12L26.9398 18.64L29.7798 15.77L28.2798 12H22.9998Z" fill="white"/>
</svg>
