<svg width="23" height="13" viewBox="0 0 23 13" fill="none" xmlns="http://www.w3.org/2000/svg">
<path fill-rule="evenodd" clip-rule="evenodd" d="M0.371226 12.2692C0.488602 12.3868 0.628041 12.4802 0.781554 12.5439C0.935068 12.6076 1.09964 12.6404 1.26585 12.6404C1.43205 12.6404 1.59662 12.6076 1.75014 12.5439C1.90365 12.4802 2.04309 12.3868 2.16047 12.2692L11.3745 3.05255L20.5886 12.2692C20.8259 12.5064 21.1477 12.6397 21.4832 12.6397C21.8188 12.6397 22.1406 12.5064 22.3779 12.2692C22.6151 12.0319 22.7484 11.7101 22.7484 11.3745C22.7484 11.039 22.6151 10.7172 22.3779 10.4799L12.2692 0.371219C12.1518 0.253546 12.0123 0.160187 11.8588 0.0964851C11.7053 0.0327845 11.5407 -5.72205e-06 11.3745 -5.72205e-06C11.2083 -5.72205e-06 11.0438 0.0327845 10.8903 0.0964851C10.7367 0.160187 10.5973 0.253546 10.4799 0.371219L0.371226 10.4799C0.253553 10.5973 0.160192 10.7367 0.0964908 10.8902C0.0327897 11.0438 0 11.2083 0 11.3745C0 11.5407 0.0327897 11.7053 0.0964908 11.8588C0.160192 12.0123 0.253553 12.1518 0.371226 12.2692Z" fill="black"/>
</svg>
